<?xml version="1.0" encoding="utf-8"?>
<!-- Generator: Adobe Illustrator 25.0.0, SVG Export Plug-In . SVG Version: 6.00 Build 0)  -->
<svg version="1.1" id="Layer_1" xmlns="http://www.w3.org/2000/svg" xmlns:xlink="http://www.w3.org/1999/xlink" x="0px" y="0px"
	 viewBox="0 0 530.7 84.1" style="enable-background:new 0 0 530.7 84.1;" xml:space="preserve">
<style type="text/css">
	.st0{fill:#434244;}
	.st1{fill:#00CEA1;}
</style>
<path class="st0" d="M106.8,67.7V67c0-1.7,0.7-2.3,2.2-1.7c4.1,1.7,9.2,2.5,15.5,2.5c5.3,0,9.2-0.7,11.6-2c2.4-1.4,3.5-3.7,3.5-6.9
	c0-1.8-0.5-3.4-1.4-4.8c-0.8-1.3-1.7-2.5-2.7-3.3c-0.7-0.6-2.3-1.7-4.9-3.2l-14.4-9.1c-6-3.7-9-8.4-9-14.2c0-8.6,6.1-12.9,18.4-12.9
	c5.8,0,10.6,0.8,14.2,2.3c0.6,0.2,1.1,0.4,1.3,0.6s0.5,0.4,0.6,0.7c0.2,0.3,0.2,0.8,0.2,1.3V17c0,1.7-0.7,2.3-2,1.7
	c-3.8-1.7-8.6-2.5-14.4-2.5c-4.7,0-8.1,0.6-10.1,1.9c-2,1.3-3,3.4-3,6.3c0,2.2,0.5,4,1.6,5.5c1,1.4,2.9,2.9,5.4,4.5l14.6,9.3
	c1.7,1,3.5,2.3,5.2,3.7c1.5,1.2,2.8,2.8,3.9,4.9c1,2.1,1.6,4.3,1.6,6.5c0,9.3-6.8,14-20.5,14c-5.7,0-10.8-0.8-15.3-2.4
	c-0.9-0.3-1.5-0.6-1.7-0.9C107,69.1,106.8,68.5,106.8,67.7z"/>
<path class="st0" d="M169.1,42.6v27.1c0,0.9-0.2,1.4-0.5,1.7c-0.3,0.3-0.9,0.5-1.7,0.5h-0.5c-0.9,0-1.4-0.2-1.7-0.5
	c-0.3-0.3-0.5-0.9-0.5-1.7V42.6c0-11.1,5.6-16.7,16.8-16.7c7.7,0,12.4,2.8,14.3,8.4c2-5.6,6.8-8.4,14.4-8.4c5.8,0,10.1,1.4,12.8,4.1
	c2.7,2.8,4,6.9,4,12.5v27.1c0,0.9-0.2,1.4-0.5,1.7c-0.3,0.3-0.9,0.5-1.7,0.5h-0.5c-0.9,0-1.4-0.2-1.7-0.5c-0.3-0.3-0.5-0.9-0.5-1.7
	V42.6c0-4.3-0.9-7.4-2.7-9.3c-1.8-1.9-4.9-2.8-9.2-2.8c-4.3,0-7.4,0.9-9.2,2.8c-1.8,1.9-2.7,5-2.7,9.3v27.1c0,0.9-0.2,1.4-0.5,1.7
	c-0.3,0.3-0.9,0.5-1.7,0.5h-0.5c-0.9,0-1.4-0.2-1.7-0.5c-0.3-0.3-0.5-0.9-0.5-1.7V42.6c0-4.3-0.9-7.4-2.7-9.3
	c-1.8-1.9-4.9-2.8-9.2-2.8c-4.2,0-7.3,1-9.1,2.9C170,35.3,169.1,38.4,169.1,42.6z"/>
<path class="st0" d="M280.4,39.7v18.5c0,5.2-1.5,8.9-4.5,11.1c-3,2.2-7.8,3.4-14.5,3.4c-5,0-8.9-1.2-11.8-3.5
	c-2.9-2.3-4.4-5.6-4.4-10c0-4.6,1.5-8,4.5-10c3-2.1,7.8-3.1,14.3-3.1h11.5v-6.4c0-3.3-1.1-5.7-3.2-7.2c-2.1-1.5-5.4-2.2-9.8-2.2
	c-4.1,0-7.8,0.4-11.1,1.3c-0.8,0.2-1.3,0.2-1.6,0c-0.3-0.2-0.4-0.8-0.4-1.7v-0.6c0-0.8,0.1-1.4,0.4-1.7c0.3-0.3,0.8-0.6,1.6-0.7
	c3.2-0.7,6.8-1,10.8-1C274.4,25.9,280.4,30.5,280.4,39.7z M275.5,58.1v-7.9h-11.3c-5,0-8.6,0.7-10.8,2.1c-2.2,1.4-3.3,3.7-3.3,7
	c0,6,3.8,9,11.3,9c5.2,0,8.8-0.8,10.9-2.3C274.5,64.5,275.5,61.9,275.5,58.1z"/>
<path class="st0" d="M305.2,41.7v28c0,0.9-0.2,1.4-0.5,1.7c-0.3,0.3-0.9,0.5-1.7,0.5h-0.5c-0.9,0-1.4-0.2-1.7-0.5
	c-0.3-0.3-0.5-0.9-0.5-1.7V41.5c0-10.4,4.8-15.6,14.5-15.6c1.2,0,2.4,0.1,3.7,0.3c0.9,0.1,1.4,0.3,1.7,0.6c0.2,0.3,0.4,0.8,0.4,1.6
	V29c0,0.9-0.2,1.4-0.5,1.7c-0.3,0.2-0.9,0.3-1.7,0.2c-1-0.2-2.2-0.3-3.6-0.3c-3.4,0-5.9,0.9-7.4,2.7C305.9,35,305.2,37.8,305.2,41.7
	z"/>
<path class="st0" d="M332.4,29.7v-0.5c0-0.6,0.1-1,0.3-1.3c0.2-0.2,0.7-0.4,1.3-0.6l5.9-0.6l0.9-10.3c0.1-0.7,0.3-1.1,0.6-1.3
	c0.2-0.2,0.7-0.3,1.3-0.3h0.5c0.7,0,1.1,0.1,1.3,0.4c0.2,0.2,0.3,0.7,0.3,1.3v10.3h16.5c0.9,0,1.4,0.2,1.7,0.5
	c0.3,0.3,0.4,0.9,0.4,1.7v0.4c0,0.8-0.1,1.4-0.4,1.7c-0.3,0.3-0.8,0.5-1.7,0.5h-16.5v25.4c0,4.1,0.8,6.9,2.3,8.7
	c1.5,1.7,3.9,2.6,7.2,2.6c3.2,0,6.1-0.4,8.7-1.1c1.4-0.5,2.1,0.1,2.1,1.7V69c0,1.3-0.7,2.1-2.1,2.6c-2.6,0.7-5.4,1.1-8.6,1.1
	c-9.6,0-14.5-5.3-14.5-15.9V31.4H334C332.9,31.4,332.4,30.8,332.4,29.7z"/>
<path class="st1" d="M383.8,67.6V16.3c0-1.7,0.3-2.9,0.8-3.4c0.6-0.6,1.7-0.8,3.4-0.8h1.2c1.7,0,2.9,0.3,3.4,0.8
	c0.6,0.6,0.8,1.7,0.8,3.4v51.4c0,1.7-0.3,2.9-0.8,3.4c-0.6,0.6-1.7,0.8-3.4,0.8h-1.2c-1.7,0-2.9-0.3-3.4-0.8
	C384.1,70.5,383.8,69.4,383.8,67.6z"/>
<path class="st1" d="M414.1,66.2v-1.5c0-1.7,0.3-2.7,0.8-3.2c0.6-0.5,1.5-0.4,2.9,0c4.7,1.5,9.6,2.2,14.9,2.2c4.2,0,7.3-0.5,9.1-1.5
	c1.8-1,2.8-2.6,2.8-5c0-1.8-0.6-3.3-1.7-4.4c-1-1.1-3.1-2.6-6.3-4.5L424,40.8c-6.1-3.7-9.2-8.7-9.2-15c0-4.9,1.7-8.6,5-11
	c3.3-2.4,8.4-3.6,15.4-3.6c4.7,0,8.9,0.6,12.8,1.8c1.7,0.5,2.7,1,3.2,1.6c0.5,0.6,0.7,1.6,0.7,3v1.6c0,1.7-0.2,2.7-0.7,3.1
	c-0.5,0.4-1.5,0.4-3,0c-3.9-1.3-8.2-1.9-13.1-1.9c-3.7,0-6.3,0.4-8,1.3c-1.6,0.9-2.4,2.3-2.4,4.4c0,1.5,0.4,2.7,1.2,3.7
	c0.8,1,2.3,2.1,4.6,3.5l13.1,8c4,2.4,6.8,4.8,8.5,7.1c1.7,2.4,2.5,5.4,2.5,9c0,10.4-7.3,15.6-22,15.6c-5.5,0-10.4-0.7-14.8-2.1
	c-1.5-0.5-2.5-1-3-1.6C414.3,68.7,414.1,67.6,414.1,66.2z"/>
<path class="st1" d="M484.9,12h14.3c6.9,0,12,1.6,15.3,4.9c3.3,3.3,4.9,8.1,4.9,14.6c0,13-6.7,19.5-20.2,19.5H484v16.6
	c0,1.7-0.3,2.9-0.8,3.4c-0.6,0.6-1.7,0.8-3.4,0.8h-1.2c-1.7,0-2.9-0.3-3.4-0.8c-0.6-0.6-0.8-1.7-0.8-3.4V22.5c0-3.7,0.8-6.4,2.5-8
	C478.5,12.9,481.2,12,484.9,12z M499.2,21.1h-11.5c-2.4,0-3.6,1.2-3.6,3.5V42h15.1c3.9,0,6.6-0.8,8.1-2.4c1.6-1.6,2.3-4.3,2.3-8
	s-0.8-6.4-2.4-8C505.7,21.9,503,21.1,499.2,21.1z"/>
<path class="st1" d="M77.4,42c0-5-4-9-9-9c-4.4,0-8.1,3.2-8.8,7.4h-7.7c-0.7-4.2-4.4-7.4-8.8-7.4s-8.1,3.2-8.8,7.4h-7.7
	c-0.7-3.7-3.6-6.6-7.3-7.3v-9.9c3.7-0.7,6.6-3.6,7.3-7.3h7.7c0.7,4.2,4.4,7.4,8.8,7.4s8.1-3.2,8.8-7.4h7.7c0.7,4.2,4.4,7.4,8.8,7.4
	c5,0,9-4,9-9s-4-9-9-9c-4.4,0-8.1,3.2-8.8,7.4h-7.7c-0.8-4.2-4.4-7.4-8.8-7.4s-8.1,3.2-8.8,7.4h-7.7c-0.7-4.2-4.4-7.4-8.8-7.4
	c-5,0-9,4-9,9c0,4.4,3.2,8.1,7.4,8.8v9.9C12,34,8.8,37.6,8.8,42c0,5,4,9,9,9c4.4,0,8.1-3.2,8.8-7.4h7.7c0.7,4.2,4.4,7.4,8.8,7.4
	s8.1-3.2,8.8-7.4h7.7c0.7,3.7,3.6,6.6,7.3,7.3v9.9c-3.7,0.7-6.6,3.6-7.3,7.3h-7.7c-0.7-4.2-4.4-7.4-8.8-7.4s-8.1,3.2-8.8,7.4h-7.7
	c-0.7-4.2-4.4-7.4-8.8-7.4c-5,0-9,4-9,9c0,5,4,9,9,9c4.4,0,8.1-3.2,8.8-7.4h7.7c0.8,4.2,4.4,7.4,8.8,7.4s8.1-3.2,8.8-7.4h7.7
	c0.7,4.2,4.4,7.4,8.8,7.4c5,0,9-4,9-9c0-4.4-3.2-8.1-7.4-8.8v-9.9C74.2,50.1,77.4,46.5,77.4,42z"/>
</svg>
